<svg xmlns="http://www.w3.org/2000/svg" width="500.312" height="139.772" viewBox="0 0 500.312 139.772"><defs><style>.a{fill:rgba(255,255,255,0.9);}</style></defs><g transform="translate(263.762)"><path class="a" d="M170.929,55.866c-.32,6.193-.471,12.4-1,18.58-.631,7.319-2.207,14.449-5.736,21-2.013,3.732-4.581,7-8.409,9.058a8.307,8.307,0,0,1-6.295.968,4.978,4.978,0,0,1-3.4-4.527q.068-43.892.011-87.781c0-.9.237-1.207,1.149-1.335a22.1,22.1,0,0,1,10.2.468c4.468,1.464,7.321,4.673,9.249,8.812a41.609,41.609,0,0,1,3.275,12.587,178.563,178.563,0,0,1,.964,22.169ZM117.12-.174c.122.322.162.464.227.595.36.687.7,1.385,1.095,2.049,2.842,4.86,6.279,9.155,11.308,11.958a1.253,1.253,0,0,1,.387.953q.034,14.249.014,28.491c0,.259-.027.518-.038.723-5.367,1.5-8.974,5.121-12.161,9.409a1.223,1.223,0,0,0,.286.027c.232-.05.464-.113.7-.167a13.4,13.4,0,0,1,10.508,1.588,1.345,1.345,0,0,1,.73,1.288q-.03,22.168,0,44.345a1.483,1.483,0,0,1-.646,1.261c-2,1.651-4.031,3.279-5.959,5.022-1.536,1.39-2.937,2.932-4.477,4.486.214,0,.324.009.432,0,2.817-.324,5.63-.743,8.454-.955,3.662-.27,7.337-.563,11-.513a70.52,70.52,0,0,0,14.978-1.02c8.042-1.621,15.057-5.135,20.588-11.305,4.711-5.254,7.488-11.5,9.231-18.269A87.484,87.484,0,0,0,186.042,60.1a150.879,150.879,0,0,0-.842-23.78,57.07,57.07,0,0,0-3.774-14.956C178.525,14.53,173.841,9.5,166.74,6.94a41.78,41.78,0,0,0-13.287-2.173c-6.238-.151-12.483-.2-18.721-.446A36.8,36.8,0,0,1,121.606,1.81c-1.448-.615-2.88-1.272-4.486-1.984Z" transform="translate(-117.12 0.174)"/></g><g transform="translate(428.318 0.907)"><path class="a" d="M245.57,10.049c4.93-1.939,10.279-2.335,15.674-2.432-5.162,2.93-8.378,7.664-11.564,12.375-2.1,3.11-3.934,6.4-5.885,9.616l-.5.822c-.236-2.094-.4-4.072-.694-6.031-.655-4.319-1.572-8.574-3.855-12.386a8.762,8.762,0,0,0-3.8-3.687,5.24,5.24,0,0,0-5.292.293,13.962,13.962,0,0,0-4.243,4.549,46.053,46.053,0,0,0-5.4,13.578,106.872,106.872,0,0,0-2.919,21.068,166.739,166.739,0,0,0,.786,26.824c.849,7.463,2.263,14.805,5.439,21.69a22.314,22.314,0,0,0,5.45,7.792,10.088,10.088,0,0,0,1.914,1.313,2.832,2.832,0,0,0,3.892-.538,15.28,15.28,0,0,0,2.288-3.07,41.989,41.989,0,0,0,3.9-10.914,72.624,72.624,0,0,0,2.2-20.492,25.04,25.04,0,0,0-1.581-8.4c-.011-.029-.016-.059-.029-.088-.973-2.223-2.245-4.223-4.968-4.3a6.971,6.971,0,0,0-6.7,3.822,15.4,15.4,0,0,0-1.77,6.97c-.083,2.529.072,5.063.131,7.6a2.741,2.741,0,0,1-.108,1.1c-.191-.279-.4-.549-.574-.838-4.9-8.152-5.1-16.638-1.763-25.358a1.265,1.265,0,0,0-.155-1.419c-1.88-2.561-2.471-5.563-2.883-8.821.383.313.628.507.869.709a35.1,35.1,0,0,0,17.431,7.8,24.925,24.925,0,0,0,9.968-.061c5.864-1.448,9.254-5.362,10.8-11.051.086-.313.151-.631.243-1.018.074.106.142.16.146.218.405,5.711.18,11.346-2.2,16.679-.5,1.133-1.275,2.146-1.883,3.238a2.83,2.83,0,0,0-.437,1.27A111.363,111.363,0,0,1,254.612,85.2c-1.556,6.387-3.774,12.508-7.686,17.888-3.468,4.774-7.914,8.182-13.771,9.481-5.63,1.245-10.576-.365-14.992-3.856a39.146,39.146,0,0,1-10.141-12.949,78.365,78.365,0,0,1-8.256-26.234c-.5-3.774-.579-7.607-.788-11.418a1.157,1.157,0,0,0-.86-1.223c-2.365-.914-4.711-1.883-7.063-2.831-.239-.1-.473-.207-.865-.378,1.392-.649,2.673-1.185,3.892-1.838,1.576-.845,3.108-1.772,4.639-2.7a2.331,2.331,0,0,0,1.049-1.865c1.552-11.17,4.475-21.908,10.218-31.725A34.428,34.428,0,0,1,220.756,3.626a18.39,18.39,0,0,1,11.3-3.367,13.682,13.682,0,0,1,9.015,4.5c1.6,1.63,2.973,3.482,4.5,5.292Z" transform="translate(-190.189 -0.229)"/></g><g transform="translate(23.484 105.164)"><path class="a" d="M10.59,62.265a36.7,36.7,0,0,0,8.4,4.869,45.453,45.453,0,0,0,22.633,3.209A60.473,60.473,0,0,0,62.2,64.218,141.528,141.528,0,0,1,90.68,54.18,254.93,254.93,0,0,1,124.7,48.21q13.506-1.486,27.088-1.669a182.514,182.514,0,0,1,29.04,1.709c14.458,2.151,28.117,6.56,40.391,14.71a54.206,54.206,0,0,1,13.593,12.357c.464.615.872,1.268,1.329,1.939A68.082,68.082,0,0,1,250.055,67.8a117.425,117.425,0,0,1,27.637-10.224,163.174,163.174,0,0,1,34.767-4.407,235.3,235.3,0,0,1,29.164,1.29c15.44,1.576,30.639,4.565,45.829,7.65q18.082,3.644,36.25,6.839A104.461,104.461,0,0,0,444.4,70.6c6.734-.153,13.344-1.007,19.519-3.941a24.6,24.6,0,0,0,10.893-9.8c.061-.1.119-.207.187-.3a1.862,1.862,0,0,1,.225-.185,17.025,17.025,0,0,1-3.3,6.846c-3.5,4.509-8.211,7.207-13.521,8.99a55.447,55.447,0,0,1-13.976,2.531,1.888,1.888,0,0,0-1,.254,26.56,26.56,0,0,1-11.317,4.91,61.488,61.488,0,0,1-19.62.653c-11.445-1.216-22.363-4.621-33.276-8.035-10.7-3.351-21.368-6.837-32.13-9.995a144.01,144.01,0,0,0-29.389-5.308,138.548,138.548,0,0,0-27.905.653,122.347,122.347,0,0,0-28.948,6.846,63.094,63.094,0,0,0-18.85,10.666c-1.912,1.642-3.536,3.619-5.292,5.443-.1.1-.2.212-.279.3-5.265-8.634-12.7-14.839-21.507-19.532a80.11,80.11,0,0,0-24.957-7.968,143.545,143.545,0,0,0-25.088-1.788,199.437,199.437,0,0,0-26.511,2.09,179.292,179.292,0,0,0-39.524,9.914c-5.27,2.052-10.341,4.623-15.494,6.981a71.316,71.316,0,0,1-21,6.342,36.492,36.492,0,0,1-16.386-1.2,14.877,14.877,0,0,0-3.637-.327,63.769,63.769,0,0,1-19.233-3.91,28.4,28.4,0,0,1-10.826-6.975c-.66-.721-1.216-1.534-1.824-2.306l.162-.185Z" transform="translate(-10.428 -46.523)"/></g><g transform="translate(0 0.89)"><path class="a" d="M16.546,95.355a36.544,36.544,0,0,0,4.975-.374,9.394,9.394,0,0,0,6.972-5.774,27.775,27.775,0,0,0,1.617-18.37c-.937-3.558-2.824-6.524-6.646-7.562a13.492,13.492,0,0,0-7.77.365,13.667,13.667,0,0,0-9.033,9.47c-3.315,10.51-1.108,20.023,5.619,28.585a24.037,24.037,0,0,0,7.736,6.563,19.042,19.042,0,0,0,15.294,1.011c7.571-2.448,13.927-6.6,18.039-13.593,5.254-8.927,5.75-18,.252-27.029C47.451,58.54,38.416,52.079,27.23,48.66c-6.24-1.908-12.357-.847-18.17,2.031l-.676.34c1.919-4.06,7.321-8.026,12.476-9.265C20,40.834,19.1,39.859,18.2,38.889a31.984,31.984,0,0,1-6.837-10.517,20.274,20.274,0,0,1,6.725-23.2C22.552,1.739,27.5-.182,33.229.293c5.2.43,9.864,2.031,13.454,6.047a1.106,1.106,0,0,0,.968.135,33.538,33.538,0,0,1,11.413-2c1.572.007,3.144.245,4.655.374-3.029,3.779-6.094,7.43-8.963,11.229a61.566,61.566,0,0,0-7.2,12.319c-.061-.919-.113-1.838-.185-2.759a29.515,29.515,0,0,0-3.085-11.866,16.625,16.625,0,0,0-9.5-8.371c-4.63-1.536-12.3,2.275-12.215,9.191.059,4.729,2.076,8.558,5.074,12,2.628,3.022,6.031,5.033,9.321,7.209,5.457,3.608,10.855,7.3,16.255,10.983a1.324,1.324,0,0,0,1.4.133c4.786-1.946,7.364-5.585,8.168-10.6.065-.405.122-.813.182-1.223l.236-.027c.365,1.892.788,3.772,1.081,5.675a21.579,21.579,0,0,1-.032,7.308,9.768,9.768,0,0,1-2.7,5.409c.142.2.261.392.408.565a31.773,31.773,0,0,1,7.86,20.737A36.464,36.464,0,0,1,65.44,89.851a46.265,46.265,0,0,1-20.6,20.863,29.8,29.8,0,0,1-14.938,3.4,28.443,28.443,0,0,1-17.21-6.716A33.986,33.986,0,0,1,.254,85.4,25.981,25.981,0,0,1,21.1,56.477c7.576-1.34,14.292.534,19.075,6.873A19.585,19.585,0,0,1,43.528,81.4a13.066,13.066,0,0,1-9.013,8.979A2.8,2.8,0,0,0,33,91.492c-3.227,4.477-8.549,6.168-14.285,4.569C17.922,95.837,17.143,95.551,16.546,95.355Z" transform="translate(0 -0.221)"/></g><g transform="translate(62.186 22.491)"><path class="a" d="M27.615,9.813H53.154c-1.241,1.712-.962,3.579-.423,5.313a79.127,79.127,0,0,0,2.921,7.864Q63.722,41.718,71.9,60.406c.092.212.2.419.408.849.043-.459.083-.7.083-.944q.007-15.809,0-31.626a34.71,34.71,0,0,0-1.833-12.058,14.669,14.669,0,0,0-4.578-6.77h19.4A23.334,23.334,0,0,0,82.3,11.93c-2.25,2.04-3.261,4.81-4.031,7.657A38.49,38.49,0,0,0,76.99,29.681c.009,13.377-.02,26.759.029,40.136a27.866,27.866,0,0,0,.592,5.772c.959,4.4,3.157,7.891,7.961,9.414H61.3c2.565-1.941,2.558-4.585,2.241-7.31A4.655,4.655,0,0,0,63.2,76.4Q54.775,56.948,46.332,37.5a.8.8,0,0,0-.405-.439V38.07c0,12.154.081,24.309-.036,36.461-.054,5.641,3.209,8.715,7.434,10.141.252.086.509.158,1,.306H31.214c4.1-1.448,5.995-4.666,7.288-8.382a4.645,4.645,0,0,0,.225-1.4c.027-1.464.007-2.928.009-4.392q.024-17.245.047-34.493c0-3.434-.027-6.867-.05-10.3a14.2,14.2,0,0,0-2.815-8.071A32.027,32.027,0,0,0,28.784,10.7c-.324-.25-.653-.5-1.171-.885Z" transform="translate(-27.613 -9.813)"/></g><g transform="translate(205.611 22.166)"><path class="a" d="M112.083,14.363c.973.162,1.905.259,2.811.477a15.648,15.648,0,0,1,12.278,13.638,63.469,63.469,0,0,1,.5,15.337c-.405,3.946-1.207,7.792-3.441,11.172-2.939,4.457-7.315,5.43-11.9,4.538a1.007,1.007,0,0,1-.255-.14Zm.6,48.847a30.836,30.836,0,0,0,8.995.54c7.961-.725,13.778-4.547,17.136-11.855,4.083-8.893,4.076-17.956.9-27.095a20.091,20.091,0,0,0-10.495-11.9,34.615,34.615,0,0,0-14.945-3.214c-6.06-.083-12.127.135-18.19.212-1.6.023-3.193,0-4.788,0a.8.8,0,0,0,.39.482,12.458,12.458,0,0,1,6.382,11.269c-.029,8.364-.007,16.726-.007,25.088,0,11.292-.018,22.581.009,33.871.009,4.087-.583,7.871-4.482,10.292,9.99-.953,18.413,2.378,25.75,8.9a4.287,4.287,0,0,0-.435-.743,36.192,36.192,0,0,1-6.826-20.127c-.113-5.074-.025-10.157-.023-15.231a4.434,4.434,0,0,1,.063-.541,4.6,4.6,0,0,1,.563.045Z" transform="translate(-91.299 -9.669)"/></g><g transform="translate(115.166 22.458)"><path class="a" d="M85.95,54.637c0,.93.038,1.7-.007,2.475a56.8,56.8,0,0,1-2.871,16.152,15.062,15.062,0,0,1-3.534,5.95,8.693,8.693,0,0,1-1.324,1.058,3.5,3.5,0,0,1-4.919-.489,17.6,17.6,0,0,1-4.182-7.31,64.773,64.773,0,0,1-3.1-15.855,97.023,97.023,0,0,1,.011-17.255c.57-6.261,1.558-12.431,4.1-18.248a13.47,13.47,0,0,1,3.331-4.93,5.489,5.489,0,0,1,.563-.439c1.723-1.14,2.9-.962,4.175.678a14.758,14.758,0,0,1,2.684,6.943A65.744,65.744,0,0,1,79.3,52.693c-1.126,3.768-2.286,5.945-5.563,10.621C79.455,62.6,83.023,59.208,85.95,54.637ZM51.138,47.146Zm0,0a57.911,57.911,0,0,0,3.416,20.185c1.971,5.261,4.675,10.058,9.022,13.771,6.051,5.171,13.517,5.295,19.728.329a27.873,27.873,0,0,0,7.463-9.616c4.245-8.542,5.662-17.652,5.29-27.1a53.934,53.934,0,0,0-4.036-18.971,30.956,30.956,0,0,0-8.346-12.015c-6.218-5.254-13.855-5.241-20.079.009a29.366,29.366,0,0,0-7.423,9.983,54.883,54.883,0,0,0-5.036,23.421Z" transform="translate(-51.138 -9.798)"/></g><g transform="translate(163.782 22.464)"><path class="a" d="M107.519,54.775Zm0,0c-.137,6.292-.752,12.476-2.858,18.422a15.257,15.257,0,0,1-3.142,5.576,12.228,12.228,0,0,1-2.225,1.775,3.14,3.14,0,0,1-3.828-.266,10.757,10.757,0,0,1-3.052-3.813A39.832,39.832,0,0,1,88.69,64.849,95.018,95.018,0,0,1,88,35.524a48.408,48.408,0,0,1,3.536-14,25.7,25.7,0,0,1,2.757-4.576,7,7,0,0,1,2.263-1.682,2.062,2.062,0,0,1,2.6.5,10.17,10.17,0,0,1,2.477,4.4,39.511,39.511,0,0,1,1.606,10.495,66.609,66.609,0,0,1-1.621,19.37,31.671,31.671,0,0,1-6.207,13.051c1.5.354,4.6-.811,6.993-2.612A22.916,22.916,0,0,0,107.519,54.775Zm10.1-10.067a53.308,53.308,0,0,0-4.693-20.449,28.962,28.962,0,0,0-8.337-11.046,15.085,15.085,0,0,0-8.882-3.405c-4.63-.144-8.393,1.806-11.634,4.916-4.13,3.964-6.671,8.9-8.466,14.256a58.366,58.366,0,0,0-2.77,22.158,53.2,53.2,0,0,0,4.389,18.895,29.491,29.491,0,0,0,8.526,11.562c5.9,4.617,12.893,4.637,18.823.061a27.76,27.76,0,0,0,7.63-9.6c3.955-7.716,5.391-16,5.418-24.575,0-.926.034-1.851,0-2.775Z" transform="translate(-72.725 -9.801)"/></g><g transform="translate(336.35 21.314)"><path class="a" d="M184.147,54.122c0,.923.041,1.676,0,2.423-.327,5.5-.919,10.956-2.892,16.141a36.974,36.974,0,0,1-2.817,5.25,5.3,5.3,0,0,1-1.239,1.281c-2.284,1.892-4.049,1.8-6.105-.327a17.233,17.233,0,0,1-3.484-6.1A59.882,59.882,0,0,1,164.4,58.148a94.853,94.853,0,0,1-.349-17.077c.5-7.139,1.45-14.195,4.446-20.8a27.361,27.361,0,0,1,2.065-3.443,5.612,5.612,0,0,1,.971-1.047c2.067-1.86,3.72-1.655,5.247.671a17.427,17.427,0,0,1,2.457,7.324,66.842,66.842,0,0,1-1.347,27.072,29.419,29.419,0,0,1-5.81,11.681c-.034.034-.018.108-.041.275,5.583-.685,9.182-4.076,12.109-8.684Zm10.157-5.1a60.115,60.115,0,0,0-2.644-19.872c-1.768-5.484-4.281-10.564-8.429-14.679-7-6.945-15.861-6.9-22.852.07a31.715,31.715,0,0,0-6.369,9.45,53.327,53.327,0,0,0-4.556,19.48,57.7,57.7,0,0,0,3.126,22.89c1.9,5.286,4.56,10.112,8.812,13.918,5.959,5.328,13.4,5.718,19.643,1.016a25.739,25.739,0,0,0,6.65-7.662c4.608-7.817,6.335-16.4,6.621-24.611Z" transform="translate(-149.352 -9.29)"/></g><g transform="translate(384.249 22.112)"><path class="a" d="M207.839,33.639c-1.351-3.178-2.664-6.472-4.144-9.691a25.426,25.426,0,0,0-4.856-7.475,8.053,8.053,0,0,0-1.09-.926,3.312,3.312,0,0,0-4.686.365,16.748,16.748,0,0,0-3.8,6.914,67.521,67.521,0,0,0-3.061,15.5,98.744,98.744,0,0,0,.011,18.951c.534,5.5,1.189,10.992,3.257,16.172a17.34,17.34,0,0,0,2.522,4.4,6.243,6.243,0,0,0,9.031.788,13.01,13.01,0,0,0,3.876-6.225,18.781,18.781,0,0,0,.119-12.72,9.016,9.016,0,0,0-1.723-2.781,2.573,2.573,0,0,0-3.955,0,8.366,8.366,0,0,0-2.016,4.6c-.068.351-.119.7-.18,1.065-2.23-1.144-2.725-4.576-1.527-10.544-3.238-1.937-4.8-5.112-6.18-8.432,3.094,2.6,6.662,2.272,10.263,1.811,2.986-.383,5.972-.9,8.97-1.025,4.842-.2,8.387,2.056,10.486,6.4.808,1.676,1.349,3.482,2.049,5.322-1.666-.158-3.1-.369-4.542-.412-2.146-.063-2.146-.014-2.344,2.092-.579,6.137-1.851,12.094-4.837,17.562-2.439,4.47-5.822,7.943-10.8,9.542-7.162,2.3-13.9.119-18.9-6.081A40.22,40.22,0,0,1,172.6,63.824a58.591,58.591,0,0,1-1.509-22.633,57.16,57.16,0,0,1,4.536-17.228,26.991,26.991,0,0,1,7.961-10.544,17.886,17.886,0,0,1,9.637-3.732c4.732-.369,8.418,1.743,11.569,5.045.225.234.43.5.644.743l.669.8c2.675-3.779,6.524-5.245,10.992-5.851-3.844,7.594-7.819,14.987-9.256,23.219Z" transform="translate(-170.621 -9.644)"/></g><g transform="translate(242.993 102.642)"><path class="a" d="M116.744,45.428c.239,1.948.428,3.9.727,5.84a32.6,32.6,0,0,0,3.052,10.051,13.571,13.571,0,0,0,5.241,5.891c-4.238,1.241-7.117,4.16-9.956,7.222-1.878-3.22-4.93-5.112-7.909-7.155,3.243-1.486,4.511-4.457,5.639-7.486a60.7,60.7,0,0,0,3.045-13.949l.045-.439Z" transform="translate(-107.898 -45.403)"/></g></svg>