<?xml version="1.0" encoding="utf-8"?>
<svg xmlns="http://www.w3.org/2000/svg" height="45.75" viewBox="0 0 153.296 45.75" width="153.296">
  <defs>
    <style>.a{fill:#fff;}.b{fill:#3bbff0;}</style>
  </defs>
  <path class="a" d="M1497.322,1153.849h2.3v-.572l-.577-.577h-2.867l-.577.577v4.589l.577.572h2.867l.577-.572v-.572h-2.3v-1.15h2.3V1155h-2.3Z" transform="translate(-1419.175 -1147.569)"/>
  <rect class="b" height="3.245" transform="translate(76.813)" width="3.245"/>
  <path class="a" d="M1379.244,1152.7v2.3h-1.722v-2.3h-1.145l-.577.577v4.589l.577.572h1.145v-2.295h1.722v2.295h1.15l.572-.572v-4.589l-.572-.577Z" transform="translate(-1305.497 -1147.569)"/>
  <path class="a" d="M1256.577,1152.7l-.577.577v.572h1.722v4.017l.578.572h.572l.572-.572v-4.017h1.722v-.572l-.572-.577Z" transform="translate(-1191.818 -1147.569)"/>
  <path class="a" d="M2.294,1303.7,0,1306v9.182l2.294,2.294h9.183v4.589H6.888v-2.294H0v4.594l2.294,2.294H16.071l2.294-2.294v-9.183l-2.294-2.3H6.888v-4.589h4.589v2.294h6.888V1306l-2.294-2.3Z" transform="translate(0 -1290.853)"/>
  <path class="a" d="M1257.9,1303.7v22.959h16.071l2.294-2.294V1306l-2.294-2.294H1257.9Zm6.888,4.594h4.594v13.776h-4.594Z" transform="translate(-1193.621 -1290.853)"/>
  <path class="a" d="M1662.2,1303.7v22.959h16.071l2.294-2.294v-6.888l-2.294-2.294,2.294-2.294V1306l-2.294-2.294H1662.2Zm6.888,13.776h4.594v4.594h-4.594v-4.594m0-4.594v-4.589h4.594v4.589Z" transform="translate(-1577.262 -1290.853)"/>
  <path class="a" d="M2068.895,1303.7l-2.294,2.294v18.365l2.294,2.295h13.771l2.294-2.295v-18.365l-2.294-2.294Zm4.588,4.594h4.594v13.776h-4.594Z" transform="translate(-1960.997 -1290.853)"/>
  <rect class="b" height="6.132" transform="translate(144.624 24.328) rotate(-45)" width="6.132"/>
  <rect class="b" height="6.132" transform="translate(25.25 41.414) rotate(-45)" width="6.132"/>
  <path class="a" d="M2482.377,1303.7v6.888l-2.294,2.294-2.294-2.294V1303.7h-4.595l-2.294,2.3v6.883l2.294,2.3-2.294,2.294v6.888l2.294,2.294h4.595v-6.888l2.294-2.294,2.294,2.294v6.888h4.594l2.294-2.294v-6.888l-2.294-2.294,2.294-2.3V1306l-2.294-2.3Z" transform="translate(-2344.637 -1290.853)"/>
  <path class="a" d="M822.471,1303.7v6.888l-6.888-6.888h-4.589L808.7,1306v18.365l2.294,2.294h4.589v-13.776l6.888,6.888v6.888h4.594l2.294-2.294V1306l-2.294-2.3Z" transform="translate(-767.375 -1290.853)"/>
  <path class="a" d="M420.466,1304.7H406.694l-2.294,2.294v18.365l2.294,2.294h4.594v-9.182h4.589v9.188h4.589l2.294-2.294V1307Zm-6.888,10.026-2.933-2.933,2.933-2.933,2.933,2.933Z" transform="translate(-383.735 -1291.802)"/>
</svg>